# xmcd CD database file
#
# Track frame offsets:
#	150
#	38903
#	76614
#	94716
#	129139
#	153896
#	194716
#	220184
#
# Disc length: 3197 seconds
#
# Revision: 0
# Processed by: cddbd v1.5.2PL0 Copyright (c) Steve Scherf et al.
# Submitted via: CDex 1.51
#
DISCID=5b0c7b08
DTITLE=Justin Vasquez - Triptych
DYEAR=2009
DGENRE=Jazz
TTITLE0=Triptych
TTITLE1=Nimbus
TTITLE2=Invitation
TTITLE3=Fields
TTITLE4=One and Only
TTITLE5=Red. Gree. Blue
TTITLE6=End of the Day
TTITLE7=Stella by Starlight
EXTD=YEAR: 2009
EXTT0=
EXTT1=
EXTT2=
EXTT3=
EXTT4=
EXTT5=
EXTT6=
EXTT7=
PLAYORDER=
